<svg
  xmlns="http://www.w3.org/2000/svg"
  xmlnsXlink="http://www.w3.org/1999/xlink"
  version="1.1"
  viewBox="0 0 200 75"
  style="enable-background:new 0 0 20 20;"
  xml:space="preserve">
  <path d="M 24.00,34.00
           C 35.76,33.86 44.17,28.49 54.00,22.85
             66.37,15.75 77.29,8.99 91.00,4.52
             94.54,3.36 102.41,1.35 106.00,1.09
             112.14,0.64 115.18,1.53 121.00,2.58
             142.16,6.39 157.22,15.08 175.00,26.66
             182.93,31.82 193.32,37.44 199.00,45.00
             199.00,45.00 189.00,43.17 189.00,43.17
             181.47,42.37 167.32,42.97 160.00,44.92
             148.11,48.10 144.18,53.92 134.00,58.49
             116.10,66.53 99.13,66.77 81.00,59.44
             74.46,56.80 66.39,53.53 63.00,47.00
             73.07,48.43 86.20,55.75 96.00,53.00
             85.33,47.25 85.01,40.40 82.00,30.00
             76.72,33.79 62.11,41.78 56.00,43.30
             45.41,45.93 28.22,43.25 18.00,39.57
             12.97,37.75 4.18,35.26 1.00,31.00
             7.76,32.66 17.06,34.08 24.00,34.00 Z
           M 99.28,24.21
           C 91.89,32.10 97.89,44.64 112.00,44.99
             127.92,45.38 133.32,33.39 128.40,26.04
             123.73,19.07 115.53,18.38 108.00,19.39
             104.66,20.39 101.73,21.59 99.28,24.21 Z
           M 119.69,26.23
           C 123.96,30.89 121.82,38.08 116.00,40.26
             107.09,43.60 97.00,30.37 108.04,23.31
             112.19,22.51 116.64,22.90 119.69,26.23 Z" />
</svg>
