<svg
  fill="#ffffff"
  xmlns="http://www.w3.org/2000/svg"
  xmlnsXlink="http://www.w3.org/1999/xlink"
  version="1.1"
  x="0px"
  y="0px"
  viewBox="0 0 100 125"
  style="enable-background:new 0 0 100 100;"
  xmlSpace="preserve">
  <path d="M96.5,48.3C96.2,48.2,91.2,42,83,35.8C72,27.4,60.6,23,50,23s-22,4.4-33,12.8C8.8,42,3.8,48.2,3.6,48.4
    c-0.7,0.9-0.7,2.2,0,3.2C3.8,51.8,8.8,58,17,64.2C28,72.6,39.4,77,50,77s22-4.4,33-12.8c8.2-6.2,13.2-12.4,13.5-12.7
    C97.2,50.6,97.2,49.3,96.5,48.3z M50,68.5c-10.2,0-18.5-8.3-18.5-18.5S39.8,31.5,50,31.5S68.5,39.8,68.5,50S60.2,68.5,50,68.5z"/>
</svg>
