<svg xmlns="http://www.w3.org/2000/svg" 
  xmlns:xlink="http://www.w3.org/1999/xlink" 
  version="1.1" 
  x="0px"
  y="0px"
  viewBox="0 0 100 100" 
  enable-background="new 0 0 100 100" 
  xml:space="preserve">
  <path fill="#000000" d="M75.914,38.603c-0.684-0.684-0.684-1.791,0-2.475c0.342-0.342,0.789-0.513,1.237-0.513  s0.896,0.171,1.237,0.513l12.634,12.633c0.081,0.081,0.154,0.17,0.218,0.266c0.014,0.022,0.023,0.046,0.037,0.068  c0.046,0.075,0.09,0.151,0.124,0.232c0.014,0.034,0.021,0.07,0.032,0.104c0.025,0.073,0.052,0.145,0.068,0.222  c0.023,0.113,0.035,0.229,0.035,0.346s-0.012,0.233-0.035,0.346c-0.015,0.077-0.042,0.149-0.068,0.222  c-0.012,0.034-0.018,0.071-0.032,0.104c-0.034,0.082-0.078,0.157-0.124,0.232c-0.013,0.022-0.022,0.046-0.037,0.068  c-0.064,0.096-0.137,0.185-0.218,0.266L78.389,63.872c-0.684,0.684-1.791,0.684-2.475,0s-0.684-1.792,0-2.475l9.648-9.647H37.39  c-0.966,0-1.75-0.784-1.75-1.75s0.784-1.75,1.75-1.75h48.173L75.914,38.603z M8.463,19.678v60.645c0,2.441,1.977,4.427,4.406,4.427  h49.04c2.43,0,4.408-1.985,4.408-4.427V58.735c0-0.967-0.784-1.75-1.75-1.75s-1.75,0.783-1.75,1.75v21.588  c0,0.502-0.416,0.927-0.908,0.927h-49.04c-0.491,0-0.906-0.425-0.906-0.927V19.678c0-0.503,0.415-0.928,0.906-0.928h49.04  c0.492,0,0.908,0.425,0.908,0.928v21.586c0,0.966,0.784,1.75,1.75,1.75s1.75-0.784,1.75-1.75V19.678  c0-2.442-1.978-4.428-4.408-4.428h-49.04C10.439,15.25,8.463,17.236,8.463,19.678z" />
</svg>